<?xml version="1.0" encoding="UTF-8"?>
<svg id="_레이어_2" data-name="레이어 2" xmlns="http://www.w3.org/2000/svg" viewBox="0 0 101.38 93.25">
  <defs>
    <style>
      .cls-1 {
        fill: none;
        stroke-width: 3px;
      }

      .cls-1, .cls-2 {
        stroke: #666;
        stroke-miterlimit: 10;
      }

      .cls-2 {
        fill: #666;
        stroke-width: .75px;
      }
    </style>
  </defs>
  <path class="cls-2" d="M4.58.58s-1.74.07-1.74,1.26v20.51s0,4.46,3.77,7.67l1.66,1.35s1.19.89,1.52,2.23.33,8.76.33,8.76l2.51.78-.17-10.17s.03-1.88-3.2-4.62c0,0-3.11-2.05-3.11-4.95,0,0,2.31,1.45,4.33.89s3.27-2.15,3.27-2.15c0,0,.92,2.08,3.96,2.28s3.9-1.45,3.9-1.45c0,0,.2,3.17-4.03,6.31,0,0-2.48,1.45-2.84,5.45l.03,9.74,2.51,2.71.03-12.22s.1-2.81,4.13-5.29,3.34-9.88,3.34-9.88l-.03-17.87s-.16-1.14-1.93-1.5c0,0-1.83-.08-2.29,1.5l-.14,17.79s-.38,1.88-1.91,1.83c0,0-2.4.19-2.7-1.47l.03-18.12s-.35-1.75-2.02-1.53c0,0-1.74-.08-1.99,1.28s-.2,18-.2,18c0,0-.32,2.05-2.42,1.87s-2.38-1.69-2.38-1.69l-.19-18s-.05-1.27-1.43-1.34l-.62.07Z"/>
  <path class="cls-1" d="M19.06,59.8l-1.68-.48s-1.62-.59-3.03-1.89-1.09-2.21-1.09-2.21c.48-3.96-1.14-6.04-1.14-6.04,0,0-.35-.74-1.65,0s-1.31.04-1.31.04c0,0-.76-2.57-4.3-2.08s-3.35,5.05-3.35,5.05c0,0-.05,4.71,6.25,10.17.51.44,1.07.89,1.67,1.35l.76,1.01-.57,20.63s.63,4.11,3.99,3.8,3.99-3.04,3.99-3.04l-.95-17.21-.13-1.71s3.35.85,4.87.93c0,0,3.16,12.17,15.06,17.74l.38,3.31s1.01,2.39,3.92,2.51,21.14,0,21.14,0c0,0,3.16-1.39,2.78-4.43l.03-1.52s10.6-4.37,14.9-17.02c0,0,3.04-.76,5.38-1.39l-.38,19.37s.63,2.4,3.61,2.4,3.67-2.85,3.67-2.85l-.7-22.59s5.95-3.04,8.48-9.94c0,0,1.65-7.09-4.11-7.02,0,0-1.72-.24-2.55,1.48l-.83,1.71s-.1.86-1.1-.37"/>
  <path class="cls-1" d="M91.95,49.55s-1.87-1.53-2.72.17c0,0-.96-1.76-1.19,5.56,0,0-.62,2.95-6.81,4.77l.34-3.91s.4-.68-2.33-.4l-.96-.11s-.4.57-.11-2.04-.9-16.55-12.58-21.82c0,0-1.6,0-2.25-1.76s-5.51-7.49-12.79-7.36-10.95,4.79-13.49,7.85c0,0,.91,1.11-3.09,1.92,0,0-11.49,5.86-11.43,23.15,0,0,.38.46-.81.53s-2.07.09-2.07.09c0,0-.45-.34-.23,1.89s1.78,9.5,1.78,9.5"/>
  <path class="cls-1" d="M16.1,66.96s-7.87-3.03-10.17-6.32"/>
  <path class="cls-1" d="M81.23,60.04s-1.16,8.16-1.87,9.37l.71-1.21s10.61-3.46,14.17-6.72"/>
  <path class="cls-2" d="M83.46,2.7s-8.48,6.98-4.57,21.48c0,0,1.26,3.85,5.05,6.92,0,0,1.5,1.02,1.56,3.31s-.36,12.4-.36,12.4l2.89-2.83v-10.89s0-1.44-2.23-4.21c0,0-4.57-2.35-5.11-10.05s2.65-11.85,2.65-11.85c0,0,1.87-3.61,5.48-3.73s5.48,3.07,5.48,3.07c0,0,3.31,4.03,3.25,12.58,0,0-.02,6.66-4.99,9.69,0,0-2.17,1.74-2.17,4.03s-.54,10.77-.54,10.77l2.71-.72.36-9.93s.18-1.26,1.99-2.65,3.61-4.27,3.61-4.27c0,0,1.81-2.59,1.74-9.09s-2.71-10.77-2.71-10.77c0,0-3.37-5.66-7.82-5.54s-6.26,2.29-6.26,2.29Z"/>
  <ellipse class="cls-2" cx="40.97" cy="43.8" rx="1.9" ry="2.34"/>
  <ellipse class="cls-2" cx="59.84" cy="43.8" rx="1.9" ry="2.34"/>
  <path class="cls-2" d="M41.07,54.61c.54.85,3.21,3.45,5.95,3.88s5.02.32,6.85,0,4.76-2.26,5.73-3.38-.58-2.99-1.66-2.26-3.42,2.84-5.79,3.06-5.69-.28-7.5-1.64-2.35-1.62-2.74-1.4-1.4.86-.84,1.74Z"/>
</svg>